<svg height="48.259" viewBox="0 0 240.071 48.259" width="240.071" xmlns="http://www.w3.org/2000/svg"><g fill="#fff"><path d="m423.256 445.039h-13.121v24.129h-9.373l1.124 12.993h21.37z" transform="translate(-385.765 -445.039)"/><path d="m408.526 445.039h-21.37v48.261h13.123v-35.267h9.373z" transform="translate(-387.155 -445.039)"/><path d="m566.439 450.312a12.81 12.81 0 1 0 13.061 12.808 12.935 12.935 0 0 0 -13.06-12.808m0 21.593a8.791 8.791 0 1 1 8.5-8.785 8.645 8.645 0 0 1 -8.5 8.785" transform="translate(-370.17 -444.558)"/><path d="m469.437 464.939h12.5v-3.959h-12.5v-6.336h14v-3.934h-18.5v24.748h18.746v-3.935h-14.246z" transform="translate(-379.207 -444.522)"/><path d="m593.594 471.5v-20.792h-4.5v24.748h17.5v-3.956z" transform="translate(-366.521 -444.522)"/><path d="m445.784 450.709h-9.873v24.748h4.5v-7.92h5.374c5.44 0 9.373-3.766 9.373-8.414s-2.875-8.414-9.373-8.414m-.375 12.869h-5v-8.91h5c3.7 0 5.373 1.995 5.373 4.455s-1.939 4.455-5.373 4.455" transform="translate(-382.173 -444.521)"/><path d="m515.251 459.123c0-4.647-2.874-8.414-9.373-8.414h-9.872v24.748h4.5v-7.92h4.9l5.6 7.92h5.249l-6.189-8.751a8.252 8.252 0 0 0 5.189-7.583m-9.748 4.455h-5v-8.91h5c3.7 0 5.373 1.995 5.373 4.455s-1.939 4.455-5.373 4.455" transform="translate(-376.033 -444.521)"/><path d="m541.516 462.9a19.886 19.886 0 0 0 -5.864-2.117c-4.255-1.06-4.942-1.82-4.942-3.231 0-2.137 2.1-3.093 4.174-3.093a12.655 12.655 0 0 1 6.835 2.293 12.881 12.881 0 0 1 2.164 1.825v-5.453a16.73 16.73 0 0 0 -9-2.871c-4.88 0-8.423 3.07-8.423 7.3 0 5.281 5.105 6.552 8.155 7.312 4.73 1.178 5.817 1.892 5.817 3.825a2.263 2.263 0 0 1 -1.131 2.121 7.7 7.7 0 0 1 -3.918.849c-3.611 0-7.55-2.583-8.748-3.751v5.219c.074.046.15.09.225.134a17.813 17.813 0 0 0 8.523 2.606c5.735 0 9.3-2.75 9.3-7.178a6.471 6.471 0 0 0 -3.167-5.788" transform="translate(-372.921 -444.563)"/></g></svg>