<svg height="34.891" viewBox="0 0 297.18 34.891" width="297.18" xmlns="http://www.w3.org/2000/svg"><g fill="#fff"><path d="m359.67 291.153a5.272 5.272 0 0 0 .3 1.817 3.262 3.262 0 0 1 .262 1.249c0 1.022-.6 1.7-1.385 1.7-2.211 0-3.222-4.5-3.222-8.06 0-3.709 1.049-7.228 2.06-11.163a13.621 13.621 0 0 0 .525-3.368 8.651 8.651 0 0 0 -1.948-5.374c-.149-.189-.3-.341-.3-.454 0-.189.262-.341.6-.341 1.573 0 4.532 3.33 4.532 6.243a10.875 10.875 0 0 1 -1.31 4.239c-1.087 2.535-2.1 5.3-2.1 7.644 0 1.324.338 1.892.413 1.892s.187-.113.338-.416c1.123-2.46 3.858-7.682 4.344-7.682.038 0 .038.037.038.113a4.181 4.181 0 0 1 -.413 1.324c-.224.606-2.735 6.774-2.735 10.633m23.635 1.287a1.772 1.772 0 0 1 -1.536 1.892 2.142 2.142 0 0 1 -1.686-1.287 9.376 9.376 0 0 0 -2.735-2.838 6.28 6.28 0 0 1 -6.1 5.109c-2.848 0-5.246-2.006-5.246-4.352 0-2.119 2.622-4.087 7-4.087a12.99 12.99 0 0 1 2.1.152c.037-.53.037-.985.037-1.4-.037-1.589-.112-5-.15-8.363h-.112a10.06 10.06 0 0 1 -1.5.152 6.289 6.289 0 0 1 -6.292-4.126c0-.113.036-.151.149-.151a5.914 5.914 0 0 1 1.013.3c.973.34 2.1.908 2.883 1.1a10.589 10.589 0 0 0 2.359.3 8.478 8.478 0 0 0 .975-.076c.15-.038.338-.038.486-.075l-.037-2.309c-.038-3.1-.15-3.482-1.8-3.9-.338-.075-.564-.151-.564-.378a2.339 2.339 0 0 1 2.061-1.476c1.086 0 3.109 1.324 3.109 3.028a9.612 9.612 0 0 1 -.15 1.324 24.221 24.221 0 0 0 3.446.757 1.236 1.236 0 0 1 1.161 1.324c0 .909-.524 2.574-5.13 3.747 0 .567-.038 1.135-.038 1.665 0 1.438.076 4.465.488 9.119 3.07.985 5.805 2.951 5.805 4.844m-11.8-3.746c-2.771 0-4.232 1.173-4.232 2.081 0 1.589 2.285 1.93 3.184 1.93a4.319 4.319 0 0 0 4.42-3.443 10.493 10.493 0 0 0 -3.371-.568m7.642-15.856c0-.114-.112-.643-1.647-1.438l-.039.227c-.149.871-.187 1.7-.262 2.535.112-.039 1.948-.568 1.948-1.324" transform="translate(-355.625 -262.999)"/><path d="m411.667 273.955-.186.491a112.5 112.5 0 0 0 -4.57 15.931 6.747 6.747 0 0 1 -1.761 3.9 1.779 1.779 0 0 1 -1.2.529c-1.011 0-1.423-1.362-1.423-2.233a7.039 7.039 0 0 1 1.161-3.216 139.9 139.9 0 0 0 5.655-14.532l.076-.227a7.364 7.364 0 0 1 -1.985.265c-2.06 0-5.318-1.211-5.318-3.935 0-.227.074-.341.186-.341a3.551 3.551 0 0 1 .75.341 9.229 9.229 0 0 0 4.158 1.211 11.914 11.914 0 0 0 2.808-.378 12.17 12.17 0 0 0 .149-1.968c0-1.287-.262-2.309-1.012-2.347-.6-.038-1.01-.151-1.01-.455a2.159 2.159 0 0 1 1.909-1.513c1.161 0 2.809 1.021 2.809 3.405a8.338 8.338 0 0 1 -.188 1.59c.862-.265 1.273-1.136 2.1-1.325a1.817 1.817 0 0 1 .45-.038c.712 0 1.237.341 1.237 1.022 0 2.119-4.308 3.632-4.795 3.822m16.368 18.732c0 1.4-2.1 2.043-4.42 2.043-4.645 0-8.652-2.611-8.652-5.487a3.518 3.518 0 0 1 1.536-2.877c.112 0 .149.114.149.3a2.59 2.59 0 0 1 -.261.983 1.34 1.34 0 0 0 -.112.53c0 1.476 2.622 2.99 5.655 2.99h.374a23.955 23.955 0 0 1 2.435-.265c2.173.038 3.3.907 3.3 1.779m1.087-17.37c0 .606-.488 1.173-1.5 1.324a10.7 10.7 0 0 0 -5.657 2.384 2.072 2.072 0 0 1 -.9.492c-.076 0-.113-.038-.113-.076a1.443 1.443 0 0 1 .374-.719c1.911-2.5 2.285-3.028 2.285-3.481 0-.644-1.573-1.287-2.585-1.287a1.842 1.842 0 0 0 -.448.037 12.445 12.445 0 0 1 -1.5.3c-.15 0-.187-.039-.187-.113 0 0 1.01-1.892 4.157-1.892 3.108 0 6.068 1.665 6.068 3.027" transform="translate(-364.358 -262.792)"/><path d="m453.474 296.731c-.412 0-.637-.038-.637-.113 0-.114.45-.3 1.349-.53 5.994-1.514 9.777-5.562 9.777-8.7a3.912 3.912 0 0 0 -3.934-4.012c-2.546 0-4.082 2.308-5.955 5.6-.561.946-1.161 1.4-1.836 1.4-.486 0-3.634-.568-3.634-6.092a36.247 36.247 0 0 1 .6-5.753 23.622 23.622 0 0 0 .488-3.594c0-.152-.037-.3-.037-.417a5.424 5.424 0 0 1 -.039-.794c0-1.892.862-3.028 2.661-4.163.672-.417 1.385-.757 2.06-1.211a1.153 1.153 0 0 0 .562-.946 1.337 1.337 0 0 0 -.188-.681 8.2 8.2 0 0 1 -1.048-2.347c0-.151.076-.189.224-.189 1.2 0 6.143 2.535 6.143 5.146a1.665 1.665 0 0 1 -1.647 1.816 5.681 5.681 0 0 1 -1.761-.377 9.519 9.519 0 0 0 -2.847-.53c-1.609 0-2.4.832-2.4 2.081a4.024 4.024 0 0 0 .224 1.211 7.74 7.74 0 0 1 .412 2.347 16.743 16.743 0 0 1 -.448 3.065 30.607 30.607 0 0 0 -.488 4.73c0 2.385.788 2.536 1.05 2.536a1.764 1.764 0 0 0 .975-.417c.9-.6 1.873-1.475 3.632-2.572a8.219 8.219 0 0 1 4.308-1.287c3.034 0 6.331 2.119 6.331 5.562a7.849 7.849 0 0 1 -2.773 5.525c-2.958 2.8-8.689 3.709-11.125 3.709" transform="translate(-373.091 -262.56)"/><path d="m494.22 288.778a12.783 12.783 0 0 0 .226 2.347 3.028 3.028 0 0 1 .075.568c0 1.059-.787 1.778-2.247 1.778-1.2 0-8.578-1.4-8.578-13.055 0-1.173.074-2.384.149-3.557.038-.416.038-.87.038-1.324a16.842 16.842 0 0 0 -.114-2.157 5.014 5.014 0 0 1 -.112-.908c0-.189.038-.3.226-.3a4.374 4.374 0 0 1 3.259 4.39 8.107 8.107 0 0 1 -.188 1.665 23.556 23.556 0 0 0 -.525 4.5c0 5.828 3.971 6.509 4.195 6.509a1.384 1.384 0 0 0 1.161-.681c.712-1.287 1.573-3.331 2.248-4.693.525-1.06.824-1.551.936-1.551.037 0 .075.075.075.189a10.841 10.841 0 0 1 -.3 1.7 21.71 21.71 0 0 0 -.526 4.579m15.918-5.222c0 1.665-1.01 2.5-1.946 2.5-.863 0-1.686-.643-1.8-2.005-.3-3.747-3-6.888-5.544-7.531-.973-.265-1.573-.491-1.573-.681 0-.113.3-.189.975-.189 6.779 0 9.887 4.579 9.887 7.908" transform="translate(-379.675 -263.992)"/><path d="m550.491 270.7c0 .871-.786 1.665-2.359 1.665a7.271 7.271 0 0 1 -.862-.076 12.163 12.163 0 0 0 -2.022-.151 13 13 0 0 0 -5.544 1.1c-2.247 1.287-4.045 6.433-4.045 10.974 0 5.6 2.734 7.947 5.692 7.947a6.253 6.253 0 0 0 1.987-.341 3.242 3.242 0 0 1 1.161-.189 1.959 1.959 0 0 1 2.173 1.74c0 2.082-3.333 2.536-4.944 2.536-1.536 0-8.091-.492-8.091-9.8 0-4.239 1.386-9.045 3.484-11.731.149-.19.3-.341.3-.416h-.037a45.86 45.86 0 0 0 -7.528 3.481 4.98 4.98 0 0 1 -2.4.53c-1.386 0-3.858-.606-3.858-2.384 0-.379.112-.492.336-.492.188 0 .488.113.788.152a10.078 10.078 0 0 0 1.535.151 6.763 6.763 0 0 0 2.66-.53c3.371-1.287 8.464-4.049 13.782-5.6a9.557 9.557 0 0 1 3.11-.833h.3c3.522 0 4.382 1.4 4.382 2.27" transform="translate(-387.177 -263.321)"/><path d="m565.479 300.948a15 15 0 0 0 -4.42-5c-.374-.3-.675-.491-.675-.606 0-.075.112-.075.337-.075 1.46 0 8.691 1.21 8.691 4.957a2.091 2.091 0 0 1 -1.948 2.157 2.279 2.279 0 0 1 -1.985-1.438" transform="translate(-394.088 -268.139)"/><path d="m603.758 283.774c2.321 4.277 7.828 8.515 15.732 8.968.149 0 .224.038.224.076 0 .34-3.634 1.588-4.757 2.838a.981.981 0 0 1 -.712.34c-2.171 0-9.1-4.239-10.936-11.656-2.923 11.958-16.894 12.109-17.456 12.109-.412 0-.673-.039-.673-.152 0-.075.262-.189.861-.3 6.7-1.25 12.773-5.828 14.159-12.223h-1.948c-2.061 0-6.7.114-9.889.416h-.037c-.712 0-1.836-1.438-1.836-1.892 3.671.455 9.776.568 11.911.568h1.948a16.619 16.619 0 0 0 .151-1.968 22.444 22.444 0 0 0 -.114-2.725c-2.022.075-4.082.152-5.993.152-3.521 0-5.206-.113-5.206-.455 0-.113.263-.227.936-.264 4.532-.265 15.619-1.589 18.8-3.52l.225-.151a2.378 2.378 0 0 1 -.3-.53 10.942 10.942 0 0 0 -1.985-2.989c-.187-.189-.338-.3-.338-.379s.112-.113.412-.113c1.273 0 5.318.606 5.318 3.065a1.8 1.8 0 0 1 -1.535 1.779c.749.757 1.761 1.779 1.761 2.346 0 .3-.263.416-.638.416a2.769 2.769 0 0 1 -.9-.151 1.333 1.333 0 0 0 -.412-.076c-.112 0-.224.039-.3.039-1.685.265-3.82.454-6.1.606.186.038.337.113.486.151.338.114.45.265.45.416 0 .19-.224.379-.6.606-.45.227-.524.341-.6 1.022-.076.833-.15 1.7-.225 2.234v.226a.565.565 0 0 1 -.038.265h7.754a.832.832 0 0 0 .637-.341c1.611-2.27 1.985-2.763 2.4-2.763.9 0 3.858 2.612 3.858 3.558 0 .227-.149.454-.786.454zm-11.05-14.645c-3.258 3.9-6.367 6.017-6.891 6.017a.081.081 0 0 1 -.076-.076c0-.114.15-.341.487-.72 1.8-2.043 5.579-7.833 6.18-11.807.038-.227 0-.341.112-.341.376 0 4.682 1.476 4.682 2.611 0 .3-.486.492-1.31.568-.413.038-.563.151-.863.643a23.941 23.941 0 0 1 -1.573 2.195h3.185a.581.581 0 0 0 .485-.3c.936-1.552 1.461-2.346 1.912-2.346.785 0 3.108 2.157 3.108 3.1 0 .226-.149.454-.711.454zm2.1 4.541a10.388 10.388 0 0 0 -2.021-3.179c-.189-.151-.338-.3-.338-.378s.112-.113.412-.113c.711 0 5.431.454 5.431 3.216a1.844 1.844 0 0 1 -1.761 1.892 1.945 1.945 0 0 1 -1.723-1.438m10.3-4.541c-1.8 2.308-5.207 5.6-6.143 5.6-.037 0-.076 0-.076-.039 0-.113.151-.3.412-.606 1.386-1.513 5.094-8.022 5.394-11.277.037-.379.037-.492.188-.492.412 0 4.607 1.628 4.607 2.5 0 .3-.45.53-1.161.606a.814.814 0 0 0 -.788.417c-.525.757-1.086 1.552-1.722 2.384h5.655a.71.71 0 0 0 .562-.3c1.8-2.535 1.948-2.611 2.247-2.611a.467.467 0 0 1 .224.038c1.087.416 3.446 2.5 3.446 3.331 0 .265-.188.454-.786.454z" transform="translate(-398.745 -262.204)"/><path d="m663.392 286.854c0 3.633-4.2 6.888-8.128 6.888a3.689 3.689 0 0 1 -4.01-3.935c0-2.082 1.5-5.147 1.873-5.147.038 0 .075.076.075.227a6.652 6.652 0 0 1 -.3 1.514 5.865 5.865 0 0 0 -.224 1.589c0 1.552.749 2.8 2.622 2.8 2.1 0 5.282-1.552 5.282-4.352 0-2.5-2.735-3.027-4.2-3.027-2.921 0-5.693 1.93-8.39 4.086.037 1.4.037 2.763.076 3.974v.34c0 1.665-.3 3.179-1.724 3.179-.561 0-1.011-.416-1.423-1.06a5.605 5.605 0 0 0 -3.033-1.854 6.245 6.245 0 0 1 -3.708 1.475c-.936 0-1.348-.492-1.348-1.135 0-1.211 1.385-2.686 1.947-2.686a1.907 1.907 0 0 1 .526.151 1.293 1.293 0 0 0 .449.113c.487 0 1.649-.416 6.292-3.367 0-.946.039-1.892.039-2.8 0-1.287-.039-2.573-.076-3.822a10.345 10.345 0 0 1 -4.233 1.1c-3.221 0-3.559-2.081-3.559-2.99 0-.34.076-.454.226-.454a2.6 2.6 0 0 1 .636.227 7.828 7.828 0 0 0 2.623.455 9.21 9.21 0 0 0 4.157-1.06c-.3-3.784-.412-5.26-1.911-5.26-.824 0-1.161-.114-1.161-.378a2.3 2.3 0 0 1 2.135-1.552c.862 0 3.072.87 3.072 2.838 0 .265 0 .6-.036.984a7.389 7.389 0 0 0 1.8.265c.188 0 .374-.038.6-.038h.225a1.1 1.1 0 0 1 1.161 1.211c0 1.4-1.311 2.421-3.9 3.746 0 2.082.075 4.276.114 6.4 2.846-1.665 5.917-3.179 9.1-3.179 4.082 0 6.331 1.968 6.331 4.541m-20.864 4.769a18.568 18.568 0 0 0 2.06.189c.975 0 1.236-.265 1.274-.681.074-.8.112-1.589.15-2.422-1.2 1.022-2.4 2.082-3.484 2.915m5.394-17.219a11.4 11.4 0 0 0 -.037 1.173v.681c.188-.113.336-.227.487-.3a.845.845 0 0 0 .412-.643c0-.265-.186-.53-.862-.908m18.653 2.46c0 1.135-.823 1.4-2.51 1.74a9.957 9.957 0 0 0 -2.958.833 2.806 2.806 0 0 1 -.936.378.1.1 0 0 1 -.112-.113c0-.114.148-.34.6-.794a4.1 4.1 0 0 0 1.123-2.2c0-.491-.3-.984-1.76-.984a3.674 3.674 0 0 0 -2.359.833 2.864 2.864 0 0 1 -1.236.719c-.112 0-.15-.038-.15-.114 0-.529 1.836-3.518 5.431-3.518 2.323 0 4.869 1.286 4.869 3.216" transform="translate(-408.448 -263.619)"/><path d="m684.186 297.3c-.076 0-.112-.038-.112-.076 0-.113.412-.454 1.46-1.059 3.483-2.044 10.3-8.287 10.3-16.159 0-3.482-1.386-5.865-3.146-5.865a4.055 4.055 0 0 0 -2.66 1.476 4.1 4.1 0 0 1 -2.773 1.513 3.336 3.336 0 0 1 -3.333-3.1c0-1.059.638-1.854.9-1.854.224 0 .412.3.6.794s.673.643 1.235.643a6.776 6.776 0 0 0 2.286-.53 12.214 12.214 0 0 1 4.2-1.022c3.52 0 6.142 3.709 6.142 8.136a14.214 14.214 0 0 1 -1.161 5.411c-3.6 8.78-12.96 11.693-13.933 11.693m11.91-30.615c0 .8-.787 1.363-2.4 1.438a15.461 15.461 0 0 0 -5.318 1.362 3.178 3.178 0 0 1 -.824.265c-.075 0-.113-.038-.113-.076 0-.113.188-.3.563-.644.562-.529 1.348-1.135 1.759-1.551.226-.227.3-.34.3-.455 0-.151-.112-.226-.3-.3-3.22-1.25-3.707-2.915-3.707-3.18 0-.151.074-.189.224-.189a4.178 4.178 0 0 1 1.349.492 12.671 12.671 0 0 0 4.232.53c.375 0 .711-.038 1.049-.038 2.023 0 3.184 1.249 3.184 2.346" transform="translate(-417.293 -262.411)"/><path d="m710.793 297.586a4.364 4.364 0 1 1 4.383 4.428 4.4 4.4 0 0 1 -4.383-4.428m7.455 0a3.1 3.1 0 0 0 -3.072-3.1 3.133 3.133 0 0 0 -3.108 3.1 3.091 3.091 0 1 0 6.18 0" transform="translate(-422.341 -267.766)"/></g></svg>