<svg xmlns="http://www.w3.org/2000/svg" width="74" height="62" viewBox="0 0 74 62">
  <g id="グループ_19929" data-name="グループ 19929" transform="translate(-73 -4847)">
    <g id="グループ_13022" data-name="グループ 13022" transform="translate(74 4848)">
      <path id="パス_2044" data-name="パス 2044" d="M169.806,270.7H130.178V222h28.306l11.322,10.826Z" transform="translate(-119.021 -221.999)" fill="none" stroke="#00a99d" stroke-linecap="round" stroke-linejoin="round" stroke-width="2"/>
      <line id="線_236" data-name="線 236" x2="22.644" transform="translate(19.699 19.13)" fill="none" stroke="#00a99d" stroke-linecap="round" stroke-linejoin="round" stroke-width="2"/>
      <rect id="長方形_1709" data-name="長方形 1709" width="16.983" height="5.41" transform="translate(19.719 8.156)" fill="none" stroke="#00a99d" stroke-linecap="round" stroke-linejoin="round" stroke-width="2"/>
      <line id="線_237" data-name="線 237" x2="22.644" transform="translate(19.699 24.584)" fill="none" stroke="#00a99d" stroke-linecap="round" stroke-linejoin="round" stroke-width="2"/>
      <line id="線_238" data-name="線 238" x2="22.644" transform="translate(19.699 30.039)" fill="none" stroke="#00a99d" stroke-linecap="round" stroke-linejoin="round" stroke-width="2"/>
      <line id="線_239" data-name="線 239" x2="22.644" transform="translate(19.699 35.492)" fill="none" stroke="#00a99d" stroke-linecap="round" stroke-linejoin="round" stroke-width="2"/>
      <line id="線_240" data-name="線 240" x2="22.644" transform="translate(19.699 40.946)" fill="none" stroke="#00a99d" stroke-linecap="round" stroke-linejoin="round" stroke-width="2"/>
      <path id="パス_2045" data-name="パス 2045" d="M163.516,232.825H152.194V222Z" transform="translate(-112.73 -222)" fill="none" stroke="#00a99d" stroke-linecap="round" stroke-linejoin="round" stroke-width="2"/>
      <path id="パス_2046" data-name="パス 2046" d="M160.627,279.362H121V230.668h5.661l.13,43.284h33.834Z" transform="translate(-121 -219.362)" fill="none" stroke="#00a99d" stroke-linecap="round" stroke-linejoin="round" stroke-width="2"/>
      <path id="パス_2047" data-name="パス 2047" d="M164.867,275.324H125.4v-49.17h5.64l.128,43.71h33.695Z" transform="translate(-119.742 -220.736)" fill="none" stroke="#00a99d" stroke-linecap="round" stroke-linejoin="round" stroke-width="2"/>
    </g>
    <g id="グループ_19706" data-name="グループ 19706" transform="translate(113.857 4864.304)">
      <ellipse id="楕円形_56" data-name="楕円形 56" cx="11.741" cy="11.911" rx="11.741" ry="11.911" fill="#fff" stroke="#00a99d" stroke-linecap="round" stroke-linejoin="round" stroke-width="2"/>
      <g id="楕円形_50" data-name="楕円形 50" transform="translate(5.164 5.239)">
        <ellipse id="楕円形_57" data-name="楕円形 57" cx="6.577" cy="6.673" rx="6.577" ry="6.673" fill="#fff" stroke="#00a99d" stroke-linecap="round" stroke-linejoin="round" stroke-width="2"/>
      </g>
      <path id="パス_5087" data-name="パス 5087" d="M166.671,252.041A11.971,11.971,0,0,0,170,248.657l-.013.017,10.607,10.761-3.317,3.365-10.606-10.76Z" transform="translate(-148.451 -230.192)" fill="#fff" stroke="#00a99d" stroke-linecap="round" stroke-linejoin="round" stroke-width="2"/>
    </g>
  </g>
</svg>
