<svg xmlns="http://www.w3.org/2000/svg" width="60" height="60" viewBox="0 0 60 60">
  <g id="_05_icon" data-name="05_icon" transform="translate(-1028.396 -3030.881)">
    <g id="グループ_19707" data-name="グループ 19707" transform="translate(1028.396 3050.881)">
      <g id="パス_5088" data-name="パス 5088" transform="translate(-593.894 -238)" fill="#fff" stroke-linecap="round" stroke-linejoin="round">
        <path d="M 652.8935546875 276.9998474121094 L 599.9998779296875 276.9998474121094 L 599.9998779296875 239.3333282470703 C 599.9998779296875 239.1526489257812 600.1265258789062 239 600.2764892578125 239 L 652.6170043945312 239 C 652.7669067382812 239 652.8935546875 239.1526489257812 652.8935546875 239.3333282470703 L 652.8935546875 276.9998474121094 Z" stroke="none"/>
        <path d="M 651.8935546875 275.9998474121094 L 651.8935546875 240 L 600.9998779296875 240 L 600.9998779296875 275.9998474121094 L 651.8935546875 275.9998474121094 M 653.8935546875 277.9998474121094 L 598.9998779296875 277.9998474121094 L 598.9998779296875 239.3333282470703 C 598.9998779296875 238.5973205566406 599.5718383789062 238 600.2764892578125 238 L 652.6170043945312 238 C 653.3216552734375 238 653.8935546875 238.5973205566406 653.8935546875 239.3333282470703 L 653.8935546875 277.9998474121094 Z" stroke="none" fill="#00a99d"/>
      </g>
      <g id="パス_5089" data-name="パス 5089" transform="translate(-595 -230.395)" fill="#fff" stroke-linecap="round" stroke-linejoin="round">
        <path d="M 653.6876831054688 269.39501953125 L 599.1195678710938 269.39501953125 C 599.002197265625 269.39501953125 598.8930053710938 269.3134765625 598.8414306640625 269.187255859375 L 596.0323486328125 262.3433227539062 C 595.9559326171875 262.1567687988281 596.0328979492188 262.0095520019531 596.069580078125 261.9549255371094 C 596.1124267578125 261.89111328125 596.1892700195312 261.8150329589844 596.3123168945312 261.8150329589844 L 650.8804931640625 261.8150329589844 C 650.9978637695312 261.8150329589844 651.1070556640625 261.8966064453125 651.15869140625 262.0228881835938 L 653.9676513671875 268.86669921875 C 654.0440673828125 269.0532836914062 653.9671020507812 269.2005004882812 653.9304809570312 269.2550964355469 C 653.8876342773438 269.3189392089844 653.8107299804688 269.39501953125 653.6876831054688 269.39501953125 Z" stroke="none"/>
        <path d="M 652.693115234375 268.39501953125 L 650.4028930664062 262.8150329589844 L 597.306884765625 262.8150329589844 L 599.5972290039062 268.39501953125 L 652.693115234375 268.39501953125 M 653.6876831054688 270.39501953125 L 599.1195678710938 270.39501953125 C 598.5948486328125 270.39501953125 598.1212768554688 270.068359375 597.915771484375 269.5656433105469 L 595.1072387695312 262.7230224609375 C 594.737060546875 261.8190002441406 595.3715209960938 260.8150329589844 596.3123168945312 260.8150329589844 L 650.8804931640625 260.8150329589844 C 651.4050903320312 260.8150329589844 651.8787231445312 261.1416931152344 652.0842895507812 261.6443786621094 L 654.8927612304688 268.4869995117188 C 655.2630004882812 269.3909912109375 654.6285400390625 270.39501953125 653.6876831054688 270.39501953125 Z" stroke="none" fill="#00a99d"/>
      </g>
    </g>
    <g id="グループ_19710" data-name="グループ 19710" transform="translate(1040.974 3030.881)">
      <g id="グループ_19708" data-name="グループ 19708">
        <g id="パス_5090" data-name="パス 5090" transform="translate(-603.39 -223)" fill="#fff" stroke-linecap="round" stroke-linejoin="round">
          <path d="M 647.1876220703125 230.5386352539062 L 615.2344970703125 230.5386352539062 C 615.1226806640625 230.5386352539062 615.0194091796875 230.4241638183594 614.9942016601562 230.2723388671875 C 614.7485961914062 228.7783508300781 614.0958251953125 227.2475433349609 613.156494140625 225.9633483886719 C 612.8606567382812 225.5588836669922 612.4094848632812 225.0037231445312 611.897216796875 224.5858306884766 C 612.2578125 224.2048187255859 612.4984741210938 224.0445861816406 612.592529296875 224 L 644.1647338867188 224 C 644.29150390625 224.0132141113281 644.9661865234375 224.3747711181641 645.8601684570312 225.8990478515625 C 646.6297607421875 227.2113342285156 647.2206420898438 228.8289642333984 647.4407348632812 230.2262115478516 C 647.4564819335938 230.3258514404297 647.4146728515625 230.3993835449219 647.3768920898438 230.4436645507812 C 647.3524780273438 230.4722137451172 647.2852172851562 230.5386352539062 647.1876220703125 230.5386352539062 Z" stroke="none"/>
          <path d="M 613.6779174804688 225 C 613.774658203125 225.1205444335938 613.8700561523438 225.2450714111328 613.963623046875 225.3729553222656 C 614.875 226.6189117431641 615.5408935546875 228.0797271728516 615.8695678710938 229.5386352539062 L 646.2786865234375 229.5386352539062 C 646.0474853515625 228.6227416992188 645.6741943359375 227.6554412841797 645.2100219726562 226.7850036621094 C 644.6370849609375 225.7106018066406 644.1401977539062 225.1820678710938 643.9150390625 225 L 613.6779174804688 225 M 612.5281372070312 223 L 644.1647338867188 223 C 645.6812744140625 223 647.9127197265625 226.7959594726562 648.4285278320312 230.0706176757812 C 648.5510864257812 230.8452911376953 647.9382934570312 231.5386352539062 647.1876220703125 231.5386352539062 L 615.2344970703125 231.5386352539062 C 614.6204223632812 231.5386352539062 614.1123046875 231.0666198730469 614.0076904296875 230.4359893798828 C 613.4548950195312 227.0734405517578 610.8392333984375 224.5946197509766 610.4307250976562 225.0466461181641 C 610.2717895507812 225.2224273681641 610.185302734375 225.2969207763672 610.1567993164062 225.2969207763672 C 609.9982299804688 225.2969207763672 611.6248168945312 223 612.5281372070312 223 Z" stroke="none" fill="#00a99d"/>
        </g>
        <g id="パス_5091" data-name="パス 5091" transform="translate(-604.044 -223)" fill="#fff" stroke-linecap="round" stroke-linejoin="round">
          <path d="M 639.6939697265625 269.3331604003906 L 608.7789916992188 269.3331604003906 L 608.7789916992188 226.9999694824219 C 608.7789916992188 225.3457794189453 610.0484008789062 224 611.6087646484375 224 L 642.5236206054688 224 L 642.5236206054688 266.3332214355469 C 642.5236206054688 267.9873962402344 641.2542724609375 269.3331604003906 639.6939697265625 269.3331604003906 Z" stroke="none"/>
          <path d="M 639.6939697265625 268.3331604003906 C 640.7028198242188 268.3331604003906 641.5236206054688 267.4360046386719 641.5236206054688 266.3332214355469 L 641.5236206054688 225 L 611.6087646484375 225 C 610.599853515625 225 609.7789916992188 225.8971862792969 609.7789916992188 226.9999694824219 L 609.7789916992188 268.3331604003906 L 639.6939697265625 268.3331604003906 M 639.6939697265625 270.3331604003906 L 607.7789916992188 270.3331604003906 L 607.7789916992188 226.9999694824219 C 607.7789916992188 224.7906799316406 609.4935302734375 223 611.6087646484375 223 L 643.5236206054688 223 L 643.5236206054688 266.3332214355469 C 643.5236206054688 268.5425415039062 641.8092041015625 270.3331604003906 639.6939697265625 270.3331604003906 Z" stroke="none" fill="#00a99d"/>
        </g>
        <g id="パス_5092" data-name="パス 5092" transform="translate(-604.854 -213.333)" fill="#fff" stroke-linecap="round" stroke-linejoin="round">
          <path d="M 640.1281127929688 259.6666564941406 L 609.2265014648438 259.6666564941406 C 609.0950317382812 259.6581420898438 608.4091186523438 259.311279296875 607.4898681640625 257.7706909179688 C 606.6942138671875 256.4372863769531 606.0839233398438 254.7830505371094 605.8572998046875 253.3456268310547 C 605.8389282226562 253.2293395996094 605.8936767578125 253.144775390625 605.9279174804688 253.1047058105469 C 605.954833984375 253.0732269287109 606.0291748046875 253 606.138427734375 253 L 637.4252319335938 253 C 637.5494384765625 253 637.6636352539062 253.1246795654297 637.6907348632812 253.2900085449219 C 637.941650390625 254.8135375976562 638.6069946289062 256.3648071289062 639.564453125 257.6584777832031 C 639.8165893554688 257.9991760253906 640.2981567382812 258.5993347167969 640.8613891601562 259.0484924316406 C 640.4786987304688 259.4551696777344 640.2246704101562 259.6222534179688 640.1281127929688 259.6666564941406 Z" stroke="none"/>
          <path d="M 639.0816040039062 258.6666564941406 C 638.9680786132812 258.5276184082031 638.8609008789062 258.3888244628906 638.7606201171875 258.2533569335938 C 637.8247680664062 256.9888305664062 637.1428833007812 255.4971466064453 636.81005859375 254 L 607.0106201171875 254 C 607.2470092773438 254.9530029296875 607.6364135742188 255.9600067138672 608.123046875 256.8608703613281 C 608.717529296875 257.9614562988281 609.2315673828125 258.4913940429688 609.4580688476562 258.6666564941406 L 639.0816040039062 258.6666564941406 M 640.1890869140625 260.6666564941406 L 609.2265014648438 260.6666564941406 C 607.6754760742188 260.6666564941406 605.3966674804688 256.8453369140625 604.8695068359375 253.5013427734375 C 604.7444458007812 252.7093353271484 605.369873046875 252 606.138427734375 252 L 637.4252319335938 252 C 638.0507202148438 252 638.5715942382812 252.4826507568359 638.6775512695312 253.1279754638672 C 639.2430419921875 256.5626220703125 641.913330078125 259.0375671386719 642.3312377929688 258.5759887695312 C 642.4937133789062 258.3963317871094 642.5820922851562 258.3201599121094 642.6112670898438 258.3201599121094 C 642.7734985351562 258.3201599121094 641.11181640625 260.6666564941406 640.1890869140625 260.6666564941406 Z" stroke="none" fill="#00a99d"/>
        </g>
      </g>
      <g id="グループ_19709" data-name="グループ 19709" transform="translate(9.123 4.667)">
        <g id="長方形_2063" data-name="長方形 2063" fill="none" stroke="#00a99d" stroke-linecap="round" stroke-linejoin="round" stroke-width="2">
          <rect width="5.106" height="5.333" stroke="none"/>
          <rect x="1" y="1" width="3.106" height="3.333" fill="none"/>
        </g>
        <line id="線_371" data-name="線 371" x2="25.532" transform="translate(0 8.667)" fill="none" stroke="#00a99d" stroke-linecap="round" stroke-linejoin="round" stroke-width="2"/>
        <line id="線_372" data-name="線 372" x2="25.532" transform="translate(0 14)" fill="none" stroke="#00a99d" stroke-linecap="round" stroke-linejoin="round" stroke-width="2"/>
        <line id="線_373" data-name="線 373" x2="25.532" transform="translate(0 19.333)" fill="none" stroke="#00a99d" stroke-linecap="round" stroke-linejoin="round" stroke-width="2"/>
        <line id="線_374" data-name="線 374" x2="16.596" transform="translate(8.936 24.667)" fill="none" stroke="#00a99d" stroke-linecap="round" stroke-linejoin="round" stroke-width="2"/>
        <line id="線_375" data-name="線 375" x2="16.596" transform="translate(8.936 30)" fill="none" stroke="#00a99d" stroke-linecap="round" stroke-linejoin="round" stroke-width="2"/>
        <line id="線_376" data-name="線 376" x2="15.319" transform="translate(10.213 2.667)" fill="none" stroke="#00a99d" stroke-linecap="round" stroke-linejoin="round" stroke-width="2"/>
      </g>
    </g>
  </g>
</svg>
