<svg xmlns="http://www.w3.org/2000/svg" width="62" height="70" viewBox="0 0 62 70">
  <g id="_05_icon" data-name="05_icon" transform="translate(-9933 -2536.267)">
    <g id="グループ_17741" data-name="グループ 17741" transform="translate(9934 2541.584)">
      <path id="パス_3222" data-name="パス 3222" d="M9951.071,2547A16.2,16.2,0,0,0,9935,2563.322a16.383,16.383,0,0,0,3.148,9.675L9935,2580.46l7.578-3.3a15.808,15.808,0,0,0,8.493,2.483,16.324,16.324,0,0,0,0-32.644Z" transform="translate(-9935 -2547)" fill="none" stroke="#00c29d" stroke-linecap="round" stroke-linejoin="round" stroke-miterlimit="10" stroke-width="2"/>
      <g id="グループ_17740" data-name="グループ 17740" transform="translate(12.63 4.604)">
        <path id="パス_3223" data-name="パス 3223" d="M9954.166,2568.969h0a2.661,2.661,0,0,1-2.6-2.458l-1.052-11.01a2.686,2.686,0,0,1,2.6-3h2.107a2.687,2.687,0,0,1,2.6,3l-1.055,11.01A2.658,2.658,0,0,1,9954.166,2568.969Z" transform="translate(-9950.499 -2552.5)" fill="none" stroke="#00c29d" stroke-miterlimit="10" stroke-width="2"/>
        <ellipse id="楕円形_53" data-name="楕円形 53" cx="3.153" cy="3.294" rx="3.153" ry="3.294" transform="translate(0.515 18.116)" fill="none" stroke="#00c29d" stroke-miterlimit="10" stroke-width="2"/>
      </g>
    </g>
    <g id="グループ_17744" data-name="グループ 17744" transform="translate(9974.714 2537.266)">
      <g id="グループ_17743" data-name="グループ 17743" transform="translate(0 6.284)">
        <g id="グループ_17742" data-name="グループ 17742">
          <path id="パス_3224" data-name="パス 3224" d="M9999.285,2557.916a9.647,9.647,0,1,0-19.286,0,10.105,10.105,0,0,0,2.106,6.18,9.75,9.75,0,0,0,2.408,2.213c.363.236,1.188.455,1.451.77.367.445.152,3.6.2,3.6h6.95c0-1.678-.073-1.28-.042-2.953.018-.867,1.2-1.133,1.789-1.538A10.524,10.524,0,0,0,9997.2,2564,9.922,9.922,0,0,0,9999.285,2557.916Z" transform="translate(-9979.999 -2548)" fill="none" stroke="#00c29d" stroke-linecap="round" stroke-linejoin="round" stroke-miterlimit="10" stroke-width="2"/>
          <path id="パス_3225" data-name="パス 3225" d="M9995.115,2575.953v4.025a2.391,2.391,0,0,1-.119.715,3.191,3.191,0,0,1-.215.51,4.361,4.361,0,0,1-.833,1.1,3.53,3.53,0,0,1-2.334,1.087h-1.245a4.02,4.02,0,0,1-3.471-3.048,2.106,2.106,0,0,1-.031-.363v-4.025Z" transform="translate(-9981.349 -2552.976)" fill="none" stroke="#00c29d" stroke-linecap="round" stroke-linejoin="round" stroke-miterlimit="10" stroke-width="2"/>
        </g>
        <line id="線_357" data-name="線 357" y2="10.774" transform="translate(8.214 10.955)" fill="none" stroke="#00c29d" stroke-linecap="round" stroke-miterlimit="10" stroke-width="2"/>
        <line id="線_358" data-name="線 358" y2="10.774" transform="translate(11.384 10.955)" fill="none" stroke="#00c29d" stroke-linecap="round" stroke-miterlimit="10" stroke-width="2"/>
      </g>
      <line id="線_359" data-name="線 359" y1="3.287" transform="translate(9.898)" fill="none" stroke="#00c29d" stroke-linecap="round" stroke-miterlimit="10" stroke-width="2"/>
      <line id="線_360" data-name="線 360" y1="3.087" x2="1.106" transform="translate(13.911 0.631)" fill="none" stroke="#00c29d" stroke-linecap="round" stroke-miterlimit="10" stroke-width="2"/>
      <line id="線_361" data-name="線 361" x1="1.106" y1="3.087" transform="translate(4.268 0.631)" fill="none" stroke="#00c29d" stroke-linecap="round" stroke-miterlimit="10" stroke-width="2"/>
    </g>
    <g id="グループ_17745" data-name="グループ 17745" transform="translate(9958.643 2578.282)">
      <path id="パス_3226" data-name="パス 3226" d="M9994.143,2585h-28.93a3.194,3.194,0,0,0-3.213,3.174v15.874a3.194,3.194,0,0,0,3.213,3.175h21.837l1.809,4.762,1.809-4.762h3.476a3.2,3.2,0,0,0,3.215-3.175v-15.874A3.2,3.2,0,0,0,9994.143,2585Z" transform="translate(-9962 -2585)" fill="none" stroke="#00c29d" stroke-linejoin="round" stroke-miterlimit="10" stroke-width="2"/>
      <line id="線_362" data-name="線 362" x2="22.5" transform="translate(6.429 5.397)" fill="none" stroke="#00c29d" stroke-linecap="round" stroke-miterlimit="10" stroke-width="2"/>
      <line id="線_363" data-name="線 363" x2="22.5" transform="translate(6.429 10.794)" fill="none" stroke="#00c29d" stroke-linecap="round" stroke-miterlimit="10" stroke-width="2"/>
      <line id="線_364" data-name="線 364" x2="22.5" transform="translate(6.429 16.191)" fill="none" stroke="#00c29d" stroke-linecap="round" stroke-miterlimit="10" stroke-width="2"/>
    </g>
    <g id="グループ_17746" data-name="グループ 17746" transform="translate(9940.429 2582.6)">
      <g id="パス_3227" data-name="パス 3227" transform="translate(-9942.271 -2591.764)" fill="none" stroke-linejoin="round" stroke-miterlimit="10">
        <path d="M9946.763,2605.744h-1.945a9.014,9.014,0,0,1-.105-1.307,6.812,6.812,0,0,1,1.767-4.364c1.376-1.578,2.1-2.687,2.1-4.043,0-1.528-.988-2.564-2.858-2.564a5.087,5.087,0,0,0-2.831.863l-.623-1.5a7.539,7.539,0,0,1,3.9-1.061c3.222,0,4.676,1.949,4.676,4.044,0,1.85-1.117,3.254-2.492,4.882a5.69,5.69,0,0,0-1.639,3.723,4.446,4.446,0,0,0,.026.592Zm-2.546,3.9a1.51,1.51,0,0,1,1.534-1.578,1.566,1.566,0,1,1-1.534,1.578Z" stroke="none"/>
        <path d="M 9945.7509765625 2611.192626953125 C 9946.6865234375 2611.192626953125 9947.283203125 2610.5029296875 9947.283203125 2609.639892578125 C 9947.283203125 2608.7275390625 9946.6865234375 2608.06201171875 9945.7509765625 2608.06201171875 C 9944.841796875 2608.06201171875 9944.2431640625 2608.7275390625 9944.216796875 2609.639892578125 C 9944.216796875 2610.453369140625 9944.7646484375 2611.192626953125 9945.7509765625 2611.192626953125 M 9946.7626953125 2605.744140625 L 9946.7373046875 2605.004638671875 C 9946.7109375 2604.807373046875 9946.7109375 2604.610107421875 9946.7109375 2604.412841796875 C 9946.7109375 2603.130615234375 9947.2314453125 2602.04638671875 9948.349609375 2600.68994140625 C 9949.724609375 2599.0625 9950.841796875 2597.65771484375 9950.841796875 2595.80810546875 C 9950.841796875 2593.712890625 9949.3876953125 2591.76416015625 9946.166015625 2591.76416015625 C 9944.73828125 2591.76416015625 9943.1796875 2592.208740234375 9942.2705078125 2592.825439453125 L 9942.8935546875 2594.3291015625 C 9943.5947265625 2593.8115234375 9944.7119140625 2593.466064453125 9945.724609375 2593.466064453125 C 9947.5947265625 2593.466064453125 9948.5830078125 2594.501708984375 9948.5830078125 2596.030029296875 C 9948.5830078125 2597.386474609375 9947.8544921875 2598.495361328125 9946.478515625 2600.073486328125 C 9945.2314453125 2601.5771484375 9944.7119140625 2603.056884765625 9944.7119140625 2604.4375 C 9944.7119140625 2604.73388671875 9944.7119140625 2604.831787109375 9944.8173828125 2605.744140625 L 9946.7626953125 2605.744140625 M 9945.7509765625 2613.192626953125 C 9944.72265625 2613.192626953125 9943.7939453125 2612.79248046875 9943.1337890625 2612.066162109375 C 9942.5419921875 2611.415283203125 9942.216796875 2610.5537109375 9942.216796875 2609.639892578125 C 9942.216796875 2609.62060546875 9942.216796875 2609.601318359375 9942.2177734375 2609.58203125 C 9942.2451171875 2608.641357421875 9942.5947265625 2607.770751953125 9943.203125 2607.130859375 C 9943.232421875 2607.099853515625 9943.2626953125 2607.0693359375 9943.29296875 2607.03955078125 C 9943.044921875 2606.746826171875 9942.8779296875 2606.38037109375 9942.8310546875 2605.973876953125 C 9942.72265625 2605.041748046875 9942.7119140625 2604.850341796875 9942.7119140625 2604.4375 C 9942.7119140625 2602.4765625 9943.4609375 2600.57861328125 9944.939453125 2598.796630859375 C 9944.94921875 2598.7841796875 9944.9599609375 2598.771484375 9944.970703125 2598.759033203125 C 9946.1611328125 2597.39404296875 9946.5830078125 2596.679931640625 9946.5830078125 2596.030029296875 C 9946.5830078125 2595.841064453125 9946.546875 2595.689697265625 9946.48828125 2595.63525390625 C 9946.4052734375 2595.55712890625 9946.1552734375 2595.466064453125 9945.724609375 2595.466064453125 C 9945.072265625 2595.466064453125 9944.3916015625 2595.709228515625 9944.0810546875 2595.938232421875 C 9943.5869140625 2596.303466796875 9942.9501953125 2596.42138671875 9942.3583984375 2596.256103515625 C 9941.765625 2596.09130859375 9941.28125 2595.6630859375 9941.0458984375 2595.0947265625 L 9940.4228515625 2593.591064453125 C 9940.0595703125 2592.71435546875 9940.3623046875 2591.702880859375 9941.1474609375 2591.170166015625 C 9942.4072265625 2590.316162109375 9944.376953125 2589.76416015625 9946.166015625 2589.76416015625 C 9948.7255859375 2589.76416015625 9950.267578125 2590.746337890625 9951.1103515625 2591.5703125 C 9952.2265625 2592.661865234375 9952.841796875 2594.1669921875 9952.841796875 2595.80810546875 C 9952.841796875 2598.466552734375 9951.205078125 2600.409423828125 9949.8857421875 2601.970947265625 C 9948.9111328125 2603.1552734375 9948.7109375 2603.803955078125 9948.7109375 2604.412841796875 C 9948.7109375 2604.54150390625 9948.7109375 2604.67431640625 9948.7197265625 2604.73974609375 C 9948.728515625 2604.804931640625 9948.7333984375 2604.870361328125 9948.736328125 2604.93603515625 L 9948.76171875 2605.675537109375 C 9948.779296875 2606.189453125 9948.5986328125 2606.689208984375 9948.2578125 2607.072021484375 C 9948.8984375 2607.71240234375 9949.283203125 2608.612548828125 9949.283203125 2609.639892578125 C 9949.283203125 2610.581787109375 9948.9404296875 2611.461669921875 9948.318359375 2612.116943359375 C 9947.66015625 2612.810546875 9946.748046875 2613.192626953125 9945.7509765625 2613.192626953125 Z" stroke="none" fill="#00c29d"/>
      </g>
    </g>
  </g>
</svg>
