<svg xmlns="http://www.w3.org/2000/svg" width="48" height="47.999" viewBox="0 0 48 47.999">
  <g id="illust" transform="translate(-329.347 -9963.375)">
    <path id="パス_2242" data-name="パス 2242" d="M375.263,10008.9H357.784q2.837-3.032,5.673-6.06a.73.73,0,0,0,.278-.062l.038-.015.021-.01a.823.823,0,0,0,.447-.477l11.2-28q.8-1.985,1.589-3.971a.971.971,0,0,0,.076-.257,5.149,5.149,0,0,0-2.672-6.307,4.809,4.809,0,0,0-6.3,2.7q-5.6,14-11.2,28l-1.588,3.971a.95.95,0,0,0,.168.962c-.013.752-.023,1.5-.037,2.258l-.017,1.07q-.05,3.1-.1,6.193H330.276c-1.237,0-1.239,2.47,0,2.47h44.988C376.5,10011.374,376.5,10008.9,375.263,10008.9Zm.347-40.192-5.428-2.355C371.938,9963.958,375.86,9965.684,375.611,9968.712Zm-7.455,2.409q.628-1.564,1.254-3.133l5.678,2.465q-5.432,13.579-10.867,27.159-.628,1.564-1.254,3.133-2.84-1.232-5.678-2.465Q362.722,9984.7,368.155,9971.121Zm-10.928,29.486q2.1.911,4.2,1.822-1.207,1.285-2.414,2.576l-1.842-.8Q357.2,10002.407,357.227,10000.607Z" fill="#198269"/>
  </g>
</svg>
