<svg xmlns="http://www.w3.org/2000/svg" width="82.804" height="51.205" viewBox="0 0 82.804 51.205">
  <g id="icon" transform="translate(-495.815 -8160.438)">
    <rect id="長方形_1799" data-name="長方形 1799" width="69.107" height="45.469" rx="4.366" transform="translate(496.619 8165.37)" fill="none" stroke="#fff" stroke-miterlimit="10" stroke-width="1.609"/>
    <line id="線_300" data-name="線 300" x2="69.107" transform="translate(496.619 8172.453)" fill="none" stroke="#fff" stroke-miterlimit="10" stroke-width="1.609"/>
    <rect id="長方形_1800" data-name="長方形 1800" width="4.391" height="8.683" rx="2.183" transform="translate(513.029 8160.839)" fill="#fff" stroke="#fff" stroke-miterlimit="10" stroke-width="0.804"/>
    <rect id="長方形_1801" data-name="長方形 1801" width="4.391" height="8.683" rx="2.183" transform="translate(544.924 8160.839)" fill="#fff" stroke="#fff" stroke-miterlimit="10" stroke-width="0.804"/>
    <line id="線_301" data-name="線 301" x2="15.807" transform="translate(507.664 8193.226)" fill="none" stroke="#fff" stroke-linecap="round" stroke-linejoin="round" stroke-width="1.609"/>
    <line id="線_302" data-name="線 302" x2="15.807" transform="translate(507.664 8198.535)" fill="none" stroke="#fff" stroke-linecap="round" stroke-linejoin="round" stroke-width="1.609"/>
    <line id="線_303" data-name="線 303" x2="15.807" transform="translate(507.664 8203.845)" fill="none" stroke="#fff" stroke-linecap="round" stroke-linejoin="round" stroke-width="1.609"/>
    <rect id="長方形_1802" data-name="長方形 1802" width="5.402" height="12.796" rx="0.735" transform="translate(532.702 8190.804)" fill="none" stroke="#fff" stroke-miterlimit="10" stroke-width="1.609"/>
    <rect id="長方形_1803" data-name="長方形 1803" width="5.402" height="9.597" rx="0.735" transform="translate(540.806 8194.003)" fill="none" stroke="#fff" stroke-miterlimit="10" stroke-width="1.609"/>
    <rect id="長方形_1804" data-name="長方形 1804" width="5.402" height="6.398" rx="0.735" transform="translate(548.909 8197.201)" fill="none" stroke="#fff" stroke-miterlimit="10" stroke-width="1.609"/>
    <path id="パス_2295" data-name="パス 2295" d="M532.768,8179.706c8.261-3.479,13.894.546,18.755,5.654a.549.549,0,0,0,.448.181.587.587,0,0,0,.421-.253l1.031-1.428.823,6.479-5.134-.51,1.067-1.243a.841.841,0,0,0,.034-1.006C544.6,8179.883,537.574,8179.078,532.768,8179.706Z" fill="none" stroke="#fff" stroke-linecap="round" stroke-linejoin="round" stroke-width="1.462"/>
    <g id="グループ_14014" data-name="グループ 14014">
      <path id="パス_2296" data-name="パス 2296" d="M509.431,8185.991a3.161,3.161,0,0,1-1.674-.423,2.781,2.781,0,0,1-1.07-1.178,4.3,4.3,0,0,1,0-3.507,2.789,2.789,0,0,1,1.07-1.179,3.161,3.161,0,0,1,1.674-.423,3.069,3.069,0,0,1,1.878.557,2.937,2.937,0,0,1,1.054,1.5l-1.1.3a1.9,1.9,0,0,0-.647-.987,1.873,1.873,0,0,0-1.185-.355,1.932,1.932,0,0,0-1.093.291,1.782,1.782,0,0,0-.656.816,3.242,3.242,0,0,0-.224,1.232,3.176,3.176,0,0,0,.22,1.233,1.762,1.762,0,0,0,.658.816,1.943,1.943,0,0,0,1.1.291,1.868,1.868,0,0,0,1.185-.358,1.916,1.916,0,0,0,.647-.984l1.1.3a2.929,2.929,0,0,1-1.054,1.5A3.069,3.069,0,0,1,509.431,8185.991Z" fill="#fff"/>
      <path id="パス_2297" data-name="パス 2297" d="M517.019,8185.991a3.162,3.162,0,0,1-1.674-.423,2.775,2.775,0,0,1-1.07-1.178,4.3,4.3,0,0,1,0-3.507,2.783,2.783,0,0,1,1.07-1.179,3.525,3.525,0,0,1,3.35,0,2.79,2.79,0,0,1,1.073,1.179,4.309,4.309,0,0,1,0,3.507,2.782,2.782,0,0,1-1.073,1.178A3.176,3.176,0,0,1,517.019,8185.991Zm0-1.015a1.9,1.9,0,0,0,1.092-.287,1.756,1.756,0,0,0,.656-.818,3.19,3.19,0,0,0,.22-1.235,3.138,3.138,0,0,0-.22-1.228,1.762,1.762,0,0,0-.656-.811,1.978,1.978,0,0,0-1.092-.3,1.9,1.9,0,0,0-1.091.286,1.776,1.776,0,0,0-.653.819,3.577,3.577,0,0,0,0,2.462,1.765,1.765,0,0,0,.654.812A1.975,1.975,0,0,0,517.019,8184.976Z" fill="#fff"/>
      <path id="パス_2298" data-name="パス 2298" d="M522.131,8186.054v-.563l1.673-1.474a1.111,1.111,0,0,0,.271-.325.656.656,0,0,0,.076-.295.7.7,0,0,0-.084-.345.632.632,0,0,0-.232-.24.651.651,0,0,0-.341-.088.688.688,0,0,0-.359.092.666.666,0,0,0-.243.246.623.623,0,0,0-.082.33h-.673a1.278,1.278,0,0,1,.175-.674,1.193,1.193,0,0,1,.483-.445,1.535,1.535,0,0,1,.713-.159,1.368,1.368,0,0,1,.673.165,1.225,1.225,0,0,1,.47.457,1.3,1.3,0,0,1,.171.669,1.241,1.241,0,0,1-.076.465,1.117,1.117,0,0,1-.227.346c-.1.1-.225.223-.373.351l-1.186,1.039-.06-.161h1.922v.609Z" fill="#fff"/>
    </g>
    <g id="グループ_14015" data-name="グループ 14015">
      <path id="パス_2299" data-name="パス 2299" d="M578.491,8169.552q-1.433-1.146-2.864-2.291A1.942,1.942,0,0,1,578.491,8169.552Zm-4.89.075,1.284-1.569,3,2.4-11.133,13.608q-.644.784-1.285,1.57l-3-2.4Q568.035,8176.431,573.6,8169.627Zm-11.565,14.926,2.216,1.772q-.944.523-1.888,1.05l-.972-.778Q561.713,8185.575,562.036,8184.553Z" fill="#fff"/>
    </g>
  </g>
</svg>
