<svg xmlns="http://www.w3.org/2000/svg" width="60" height="60" viewBox="0 0 60 60">
  <g id="_03_icon" data-name="03_icon" transform="translate(-848.657 -3028.664)">
    <g id="パス_2064" data-name="パス 2064" fill="none" stroke-linecap="round" stroke-linejoin="round">
      <path d="M873.2,3040.361v3.861H865.06a1.274,1.274,0,0,0-1.255,1.293v8.408h-3.741v-8.408a1.275,1.275,0,0,0-1.256-1.293h-8.151v-3.861h8.151a1.275,1.275,0,0,0,1.256-1.293v-8.4h3.741v8.4a1.274,1.274,0,0,0,1.255,1.293Z" stroke="none"/>
      <path d="M 860.0635986328125 3030.6640625 L 860.0635986328125 3039.068115234375 C 860.0635986328125 3039.782470703125 859.5009765625 3040.361328125 858.8077392578125 3040.361328125 L 850.656982421875 3040.361328125 L 850.656982421875 3044.22265625 L 858.8077392578125 3044.22265625 C 859.5009765625 3044.22265625 860.0635986328125 3044.801513671875 860.0635986328125 3045.515869140625 L 860.0635986328125 3053.923828125 L 863.8050537109375 3053.923828125 L 863.8050537109375 3045.515869140625 C 863.8050537109375 3044.801513671875 864.3663330078125 3044.22265625 865.0596923828125 3044.22265625 L 873.2037353515625 3044.22265625 L 873.2037353515625 3040.361328125 L 865.0596923828125 3040.361328125 C 864.3663330078125 3040.361328125 863.8050537109375 3039.782470703125 863.8050537109375 3039.068115234375 L 863.8050537109375 3030.6640625 L 860.0635986328125 3030.6640625 M 860.0635986328125 3028.6640625 L 863.8050537109375 3028.6640625 C 864.9096069335938 3028.6640625 865.8050537109375 3029.5595703125 865.8050537109375 3030.6640625 L 865.8050537109375 3038.361328125 L 873.2037353515625 3038.361328125 C 874.3082885742188 3038.361328125 875.2037353515625 3039.2568359375 875.2037353515625 3040.361328125 L 875.2037353515625 3044.22265625 C 875.2037353515625 3045.3271484375 874.3082885742188 3046.22265625 873.2037353515625 3046.22265625 L 865.8050537109375 3046.22265625 L 865.8050537109375 3053.923828125 C 865.8050537109375 3055.0283203125 864.9096069335938 3055.923828125 863.8050537109375 3055.923828125 L 860.0635986328125 3055.923828125 C 858.9590454101562 3055.923828125 858.0635986328125 3055.0283203125 858.0635986328125 3053.923828125 L 858.0635986328125 3046.22265625 L 850.656982421875 3046.22265625 C 849.5524291992188 3046.22265625 848.656982421875 3045.3271484375 848.656982421875 3044.22265625 L 848.656982421875 3040.361328125 C 848.656982421875 3039.2568359375 849.5524291992188 3038.361328125 850.656982421875 3038.361328125 L 858.0635986328125 3038.361328125 L 858.0635986328125 3030.6640625 C 858.0635986328125 3029.5595703125 858.9590454101562 3028.6640625 860.0635986328125 3028.6640625 Z" stroke="none" fill="#00c29d"/>
    </g>
    <g id="長方形_1720" data-name="長方形 1720" transform="translate(884.108 3040.378)" fill="none" stroke="#00c29d" stroke-linecap="round" stroke-linejoin="round" stroke-width="2">
      <rect width="22.549" height="3.858" stroke="none"/>
      <rect x="-1" y="-1" width="24.549" height="5.858" fill="none"/>
    </g>
    <g id="グループ_13044" data-name="グループ 13044" transform="translate(883.54 3061.379)">
      <g id="長方形_1721" data-name="長方形 1721" transform="translate(0 10.716)" fill="none" stroke="#00c29d" stroke-linecap="round" stroke-linejoin="round" stroke-width="2">
        <rect width="22.55" height="3.86" stroke="none"/>
        <rect x="-1" y="-1" width="24.55" height="5.86" fill="none"/>
      </g>
      <g id="パス_2065" data-name="パス 2065" transform="translate(-872.91 -3053.644)" fill="none" stroke-linecap="round" stroke-linejoin="round">
        <path d="M886.063,3055.541v.079a1.872,1.872,0,1,1-3.743,0v-.079a1.872,1.872,0,0,1,1.84-1.9h.063A1.871,1.871,0,0,1,886.063,3055.541Z" stroke="none"/>
        <path d="M 884.1600341796875 3053.64404296875 C 883.146728515625 3053.64404296875 882.320068359375 3054.49462890625 882.320068359375 3055.541259765625 L 882.320068359375 3055.6201171875 C 882.320068359375 3056.665283203125 883.146728515625 3057.517578125 884.1600341796875 3057.517578125 C 885.2373046875 3057.517578125 886.062744140625 3056.668212890625 886.062744140625 3055.6201171875 L 886.062744140625 3055.541259765625 C 886.062744140625 3054.49462890625 885.2373046875 3053.64404296875 884.22265625 3053.64404296875 L 884.1600341796875 3053.64404296875 M 884.1600341796875 3051.64404296875 L 884.22265625 3051.64404296875 C 886.340087890625 3051.64404296875 888.062744140625 3053.392333984375 888.062744140625 3055.541259765625 L 888.062744140625 3055.6201171875 C 888.062744140625 3056.66162109375 887.6620483398438 3057.638671875 886.9343872070312 3058.371337890625 C 886.2001953125 3059.110595703125 885.2149047851562 3059.517578125 884.1600341796875 3059.517578125 C 882.0426635742188 3059.517578125 880.320068359375 3057.769287109375 880.320068359375 3055.6201171875 L 880.320068359375 3055.541259765625 C 880.320068359375 3053.392333984375 882.0426635742188 3051.64404296875 884.1600341796875 3051.64404296875 Z" stroke="none" fill="#00c29d"/>
      </g>
      <g id="パス_2066" data-name="パス 2066" transform="translate(-872.91 -3048.292)" fill="none" stroke-linecap="round" stroke-linejoin="round">
        <path d="M886.063,3071.6v.076a1.872,1.872,0,1,1-3.743,0v-.076a1.874,1.874,0,0,1,1.84-1.9h.063A1.873,1.873,0,0,1,886.063,3071.6Z" stroke="none"/>
        <path d="M 884.1600341796875 3069.700927734375 C 883.146728515625 3069.700927734375 882.320068359375 3070.55322265625 882.320068359375 3071.60107421875 L 882.320068359375 3071.67724609375 C 882.320068359375 3072.72509765625 883.146728515625 3073.576904296875 884.1600341796875 3073.576904296875 C 885.2373046875 3073.576904296875 886.062744140625 3072.72509765625 886.062744140625 3071.67724609375 L 886.062744140625 3071.60107421875 C 886.062744140625 3070.55322265625 885.2373046875 3069.700927734375 884.22265625 3069.700927734375 L 884.1600341796875 3069.700927734375 M 884.1600341796875 3067.700927734375 L 884.22265625 3067.700927734375 C 886.340087890625 3067.700927734375 888.062744140625 3069.450439453125 888.062744140625 3071.60107421875 L 888.062744140625 3071.67724609375 C 888.062744140625 3072.71826171875 887.6624755859375 3073.695068359375 886.9356079101562 3074.42822265625 C 886.2011108398438 3075.1689453125 885.2153930664062 3075.576904296875 884.1600341796875 3075.576904296875 C 882.0426635742188 3075.576904296875 880.320068359375 3073.82763671875 880.320068359375 3071.67724609375 L 880.320068359375 3071.60107421875 C 880.320068359375 3069.450439453125 882.0426635742188 3067.700927734375 884.1600341796875 3067.700927734375 Z" stroke="none" fill="#00c29d"/>
      </g>
    </g>
    <g id="パス_2067" data-name="パス 2067" transform="translate(0.494 8.499)" fill="none" stroke-linecap="round" stroke-linejoin="round">
      <path d="M852.5,3072.012l5.407-5.573a1.326,1.326,0,0,0,0-1.831l-5.763-5.945,2.647-2.727,5.764,5.941a1.227,1.227,0,0,0,1.773,0l5.756-5.937,2.645,2.728-5.759,5.94a1.322,1.322,0,0,0,0,1.828l5.763,5.944-2.173,2.243a.7.7,0,0,1-.944,0l-5.291-5.455a1.26,1.26,0,0,0-1.773,0l-5.293,5.46a.7.7,0,0,1-.835.112l-1.812-1.871A.75.75,0,0,1,852.5,3072.012Z" stroke="none"/>
      <path d="M 854.78515625 3074.8271484375 C 854.9638061523438 3074.8271484375 855.1264038085938 3074.759765625 855.2547607421875 3074.628173828125 L 860.548095703125 3069.168212890625 C 861.018798828125 3068.681396484375 861.8507080078125 3068.681396484375 862.3214111328125 3069.168212890625 L 867.612060546875 3074.622802734375 C 867.8505859375 3074.867919921875 868.3173828125 3074.870849609375 868.55615234375 3074.622802734375 L 870.7293701171875 3072.380126953125 L 864.966796875 3066.436279296875 C 864.4774169921875 3065.9306640625 864.4774169921875 3065.1123046875 864.966796875 3064.608154296875 L 870.725341796875 3058.668212890625 L 868.080078125 3055.940185546875 L 862.3240966796875 3061.877685546875 C 861.834716796875 3062.38330078125 861.038818359375 3062.383056640625 860.55078125 3061.877685546875 L 854.7867431640625 3055.936279296875 L 852.14013671875 3058.662841796875 L 857.9027099609375 3064.608154296875 C 858.137451171875 3064.849609375 858.2694091796875 3065.179931640625 858.2694091796875 3065.522705078125 C 858.2694091796875 3065.865478515625 858.137451171875 3066.1962890625 857.9027099609375 3066.438720703125 L 852.49609375 3072.011962890625 C 852.354736328125 3072.333251953125 852.394775390625 3072.6494140625 852.608154296875 3072.869384765625 L 854.4200439453125 3074.740234375 C 854.5452880859375 3074.798583984375 854.6686401367188 3074.8271484375 854.78515625 3074.8271484375 M 854.78515625 3076.8271484375 C 854.3731689453125 3076.8271484375 853.9664916992188 3076.735107421875 853.5762329101562 3076.553466796875 C 853.3544921875 3076.450439453125 853.1535034179688 3076.307373046875 852.9833984375 3076.131591796875 L 851.1715087890625 3074.2607421875 C 850.3869018554688 3073.451904296875 850.192626953125 3072.28125 850.6654663085938 3071.20654296875 C 850.76123046875 3070.98876953125 850.89501953125 3070.7900390625 851.0606079101562 3070.619384765625 L 856.00439453125 3065.523193359375 L 850.7040405273438 3060.0546875 C 849.9517822265625 3059.27880859375 849.9522094726562 3058.04541015625 850.7050170898438 3057.269775390625 L 853.3516235351562 3054.543212890625 C 853.728271484375 3054.1552734375 854.2460327148438 3053.936279296875 854.7867431640625 3053.936279296875 C 854.786865234375 3053.936279296875 854.7869262695312 3053.936279296875 854.7869873046875 3053.936279296875 C 855.327880859375 3053.936279296875 855.8456420898438 3054.155517578125 856.2222290039062 3054.543701171875 L 861.437255859375 3059.919189453125 L 866.6441040039062 3054.548095703125 C 867.020751953125 3054.15966796875 867.538818359375 3053.940185546875 868.0799560546875 3053.940185546875 C 868.62109375 3053.940185546875 869.1392211914062 3054.159423828125 869.5159301757812 3054.5478515625 L 872.1611938476562 3057.27587890625 C 872.913330078125 3058.0517578125 872.9133911132812 3059.284423828125 872.1613159179688 3060.060302734375 L 866.8662109375 3065.522216796875 L 872.165283203125 3070.988037109375 C 872.917236328125 3071.763671875 872.9174194335938 3072.99609375 872.1656494140625 3073.77197265625 L 869.994873046875 3076.01220703125 C 869.5068359375 3076.517822265625 868.8110961914062 3076.807861328125 868.0856323242188 3076.807861328125 C 867.3623046875 3076.807861328125 866.6671142578125 3076.519775390625 866.1783447265625 3076.017333984375 L 861.4348754882812 3071.126708984375 L 856.6907348632812 3076.020263671875 C 856.689208984375 3076.02197265625 856.6876831054688 3076.0234375 856.6861572265625 3076.02490234375 C 856.1813354492188 3076.542236328125 855.5062255859375 3076.8271484375 854.78515625 3076.8271484375 Z" stroke="none" fill="#00c29d"/>
    </g>
  </g>
</svg>
