<svg xmlns="http://www.w3.org/2000/svg" width="102" height="66.053" viewBox="0 0 102 66.053">
  <g id="_04_icon" data-name="04_icon" transform="translate(-643.289 -3025.555)">
    <g id="グループ_13025" data-name="グループ 13025" transform="translate(677.622 3026.555)">
      <path id="長方形_1710" data-name="長方形 1710" d="M475.06,490h58.547a4.077,4.077,0,0,1,4.06,4.094v42.1a4.077,4.077,0,0,1-4.06,4.094H475.06a4.077,4.077,0,0,1-4.06-4.094v-42.1A4.077,4.077,0,0,1,475.06,490Z" transform="translate(-471 -490)" fill="none" stroke="#00c29d" stroke-miterlimit="10" stroke-width="2"/>
      <line id="線_241" data-name="線 241" x2="66.667" transform="translate(0 8.187)" fill="none" stroke="#00c29d" stroke-miterlimit="10" stroke-width="2"/>
      <rect id="長方形_1711" data-name="長方形 1711" width="4.059" height="20.467" transform="translate(54.38 25.882)" fill="#79d2b7" stroke="#79d2b7" stroke-linecap="round" stroke-linejoin="round" stroke-width="2"/>
      <rect id="長方形_1712" data-name="長方形 1712" width="4.059" height="16.373" transform="translate(46.261 29.975)" fill="#79d2b7" stroke="#79d2b7" stroke-linecap="round" stroke-linejoin="round" stroke-width="2"/>
      <rect id="長方形_1713" data-name="長方形 1713" width="4.059" height="12.281" transform="translate(38.143 34.069)" fill="#79d2b7" stroke="#79d2b7" stroke-linecap="round" stroke-linejoin="round" stroke-width="2"/>
      <line id="線_242" data-name="線 242" x2="4.059" transform="translate(3.667 3.731)" fill="none" stroke="#00c29d" stroke-linecap="round" stroke-linejoin="round" stroke-width="2"/>
      <path id="パス_2051" data-name="パス 2051" d="M499.144,515.253A10.149,10.149,0,1,1,489,505.019v10.234Z" transform="translate(-469.827 -487.854)" fill="none" stroke="#00c29d" stroke-linecap="round" stroke-linejoin="round" stroke-width="2"/>
      <path id="パス_2052" data-name="パス 2052" d="M491.21,501.437a10.191,10.191,0,0,1,10.148,10.234H491.21Z" transform="translate(-467.98 -488.366)" fill="#79d2b7" stroke="#79d2b7" stroke-linecap="round" stroke-linejoin="round" stroke-width="2"/>
      <line id="線_243" data-name="線 243" x2="16.236" transform="translate(11.053 41.587)" fill="none" stroke="#00c29d" stroke-linecap="round" stroke-linejoin="round" stroke-width="2"/>
      <line id="線_244" data-name="線 244" x2="16.236" transform="translate(11.053 45.68)" fill="none" stroke="#00c29d" stroke-linecap="round" stroke-linejoin="round" stroke-width="2"/>
      <line id="線_245" data-name="線 245" x2="16.236" transform="translate(42.202 13.643)" fill="none" stroke="#00c29d" stroke-linecap="round" stroke-linejoin="round" stroke-width="2"/>
      <line id="線_246" data-name="線 246" x2="16.236" transform="translate(42.202 17.737)" fill="none" stroke="#00c29d" stroke-linecap="round" stroke-linejoin="round" stroke-width="2"/>
      <line id="線_247" data-name="線 247" x2="16.236" transform="translate(42.202 21.83)" fill="none" stroke="#00c29d" stroke-linecap="round" stroke-linejoin="round" stroke-width="2"/>
    </g>
    <g id="グループ_19704" data-name="グループ 19704" transform="translate(644.289 3056.269)">
      <rect id="長方形_2059" data-name="長方形 2059" width="39.08" height="28.572" rx="2" fill="#fff" stroke="#00c29d" stroke-miterlimit="10" stroke-width="2"/>
      <rect id="長方形_2060" data-name="長方形 2060" width="29.885" height="16" rx="1" transform="translate(4.598 4.571)" fill="none" stroke="#00c29d" stroke-miterlimit="10" stroke-width="2"/>
      <line id="線_367" data-name="線 367" x2="39.08" transform="translate(0 20.572)" fill="none" stroke="#00c29d" stroke-miterlimit="10" stroke-width="2"/>
      <line id="線_368" data-name="線 368" x2="4.598" transform="translate(16.957 24.584)" fill="none" stroke="#00c29d" stroke-linecap="round" stroke-miterlimit="10" stroke-width="2"/>
      <path id="パス_5085" data-name="パス 5085" d="M452.5,546.714c.643-.9,3.292-4.565,3.29-5.714h8.363c0,1.15,2.646,4.817,3.29,5.714Z" transform="translate(-440.431 -512.428)" fill="none" stroke="#00c29d" stroke-linecap="round" stroke-linejoin="round" stroke-width="2.105"/>
    </g>
  </g>
</svg>
