<svg xmlns="http://www.w3.org/2000/svg" width="33" height="45.001" viewBox="0 0 33 45.001">
  <g id="illust" transform="translate(-995.151 -9964.481)">
    <path id="パス_2248" data-name="パス 2248" d="M1024.166,9972.733a15.453,15.453,0,0,0-20.65-6.591,15.1,15.1,0,0,0-7.615,8.831,14.888,14.888,0,0,0,.941,11.563,15.19,15.19,0,0,0,8.944,7.52,15.507,15.507,0,0,0,8.167.351l7.523,14.525a1.026,1.026,0,0,0,1.37.438l4.749-2.4a1.011,1.011,0,0,0,.506-.585.993.993,0,0,0-.062-.769l-7.512-14.5a15.05,15.05,0,0,0,4.58-6.819A14.884,14.884,0,0,0,1024.166,9972.733Zm-1,10.944a13.089,13.089,0,0,1-6.6,7.658,13.356,13.356,0,0,1-10.153.807,13.181,13.181,0,0,1-7.757-6.521,12.917,12.917,0,0,1-.814-10.029,13.1,13.1,0,0,1,6.6-7.659,13.407,13.407,0,0,1,17.91,5.716A12.91,12.91,0,0,1,1023.168,9983.678Zm-.342,23.442-6.895-13.311a15.22,15.22,0,0,0,1.561-.682,15.869,15.869,0,0,0,1.38-.788l6.889,13.3Z" transform="translate(0 0.001)" fill="#198269"/>
    <path id="パス_2249" data-name="パス 2249" d="M1013.787,9969.093a11.132,11.132,0,1,0,6.487,5.523A11.057,11.057,0,0,0,1013.787,9969.093Zm.727,18.706a9.113,9.113,0,1,1-2.272-17.032,9.489,9.489,0,0,1,.924.247,9.113,9.113,0,0,1,1.348,16.785Z" fill="#198269"/>
  </g>
</svg>
