<svg xmlns="http://www.w3.org/2000/svg" width="34" height="40" viewBox="0 0 34 40">
  <g id="illust" transform="translate(-776.871 -9968.066)">
    <path id="パス_2250" data-name="パス 2250" d="M801.718,10007.86h0a.785.785,0,0,0,.529-.2l8.254-7.537a.725.725,0,0,0,.235-.538.838.838,0,0,0,.133-.448v-27.914a3.211,3.211,0,0,0-3.259-3.153H780.13a3.211,3.211,0,0,0-3.259,3.153v33.69a3.213,3.213,0,0,0,3.259,3.156h21.012A.906.906,0,0,0,801.718,10007.86Zm.773-2.475v-2.895a2.206,2.206,0,0,1,2.237-2.168h3.307Zm-2.255.931H780.13a1.43,1.43,0,0,1-1.45-1.405v-33.69a1.43,1.43,0,0,1,1.45-1.4h27.482a1.429,1.429,0,0,1,1.449,1.4v27.039h-4.223a4.535,4.535,0,0,0-4.6,4.455Z" transform="translate(0 -0.001)" fill="#198269"/>
    <path id="パス_2251" data-name="パス 2251" d="M783.429,9979.286h20.179a.9.9,0,0,0,.917-.875v-1.569a.9.9,0,0,0-.917-.875H783.429a.9.9,0,0,0-.917.875v1.569A.9.9,0,0,0,783.429,9979.286Zm.183-2.269h19.813v1.219H783.612Z" transform="translate(0.353 0.421)" fill="#198269"/>
    <path id="パス_2252" data-name="パス 2252" d="M783.429,9984.5h20.179a.9.9,0,0,0,.917-.875v-1.568a.9.9,0,0,0-.917-.875H783.429a.9.9,0,0,0-.917.875v1.568A.9.9,0,0,0,783.429,9984.5Zm.183-2.269h19.813v1.218H783.612Z" transform="translate(0.353 0.699)" fill="#198269"/>
    <path id="パス_2253" data-name="パス 2253" d="M804.525,9988.835v-1.568a.9.9,0,0,0-.917-.876H783.429a.9.9,0,0,0-.917.876v1.568a.9.9,0,0,0,.917.875h20.179A.9.9,0,0,0,804.525,9988.835Zm-1.1-.176H783.612v-1.218h19.813Z" transform="translate(0.353 0.976)" fill="#198269"/>
  </g>
</svg>
