<svg xmlns="http://www.w3.org/2000/svg" width="60" height="60" viewBox="0 0 60 60">
  <g id="_04_icon" data-name="04_icon" transform="translate(-848.657 -3028.664)">
    <g id="パス_2064" data-name="パス 2064" transform="translate(0)" fill="none" stroke-linecap="round" stroke-linejoin="round">
      <path d="M873.2,3040.361v3.862H865.06a1.274,1.274,0,0,0-1.255,1.293v8.408h-3.741v-8.408a1.275,1.275,0,0,0-1.256-1.293h-8.151v-3.862h8.151a1.275,1.275,0,0,0,1.256-1.293v-8.4H863.8v8.4a1.274,1.274,0,0,0,1.255,1.293Z" stroke="none"/>
      <path d="M 860.063720703125 3030.6640625 L 860.063720703125 3039.068115234375 C 860.063720703125 3039.782958984375 859.5010375976562 3040.361328125 858.8077392578125 3040.361328125 L 850.6570434570312 3040.361328125 L 850.6570434570312 3044.222900390625 L 858.8077392578125 3044.222900390625 C 859.5010375976562 3044.222900390625 860.063720703125 3044.8017578125 860.063720703125 3045.51611328125 L 860.063720703125 3053.923828125 L 863.8049926757812 3053.923828125 L 863.8049926757812 3045.51611328125 C 863.8049926757812 3044.8017578125 864.3663940429688 3044.222900390625 865.0597534179688 3044.222900390625 L 873.2037963867188 3044.222900390625 L 873.2037963867188 3040.361328125 L 865.0597534179688 3040.361328125 C 864.3663940429688 3040.361328125 863.8049926757812 3039.782958984375 863.8049926757812 3039.068115234375 L 863.8049926757812 3030.6640625 L 860.063720703125 3030.6640625 M 860.063720703125 3028.6640625 L 863.8049926757812 3028.6640625 C 864.9095458984375 3028.6640625 865.8049926757812 3029.5595703125 865.8049926757812 3030.6640625 L 865.8049926757812 3038.361328125 L 873.2037963867188 3038.361328125 C 874.308349609375 3038.361328125 875.2037963867188 3039.2568359375 875.2037963867188 3040.361328125 L 875.2037963867188 3044.222900390625 C 875.2037963867188 3045.327392578125 874.308349609375 3046.222900390625 873.2037963867188 3046.222900390625 L 865.8049926757812 3046.222900390625 L 865.8049926757812 3053.923828125 C 865.8049926757812 3055.0283203125 864.9095458984375 3055.923828125 863.8049926757812 3055.923828125 L 860.063720703125 3055.923828125 C 858.9591674804688 3055.923828125 858.063720703125 3055.0283203125 858.063720703125 3053.923828125 L 858.063720703125 3046.222900390625 L 850.6570434570312 3046.222900390625 C 849.552490234375 3046.222900390625 848.6570434570312 3045.327392578125 848.6570434570312 3044.222900390625 L 848.6570434570312 3040.361328125 C 848.6570434570312 3039.2568359375 849.552490234375 3038.361328125 850.6570434570312 3038.361328125 L 858.063720703125 3038.361328125 L 858.063720703125 3030.6640625 C 858.063720703125 3029.5595703125 858.9591674804688 3028.6640625 860.063720703125 3028.6640625 Z" stroke="none" fill="#00a99d"/>
    </g>
    <g id="長方形_1720" data-name="長方形 1720" transform="translate(884.108 3040.378)" fill="none" stroke="#00a99d" stroke-linecap="round" stroke-linejoin="round" stroke-width="2">
      <rect width="22.549" height="3.858" stroke="none"/>
      <rect x="-1" y="-1" width="24.549" height="5.858" fill="none"/>
    </g>
    <g id="グループ_13044" data-name="グループ 13044" transform="translate(883.54 3061.379)">
      <g id="長方形_1721" data-name="長方形 1721" transform="translate(0 10.716)" fill="none" stroke="#00a99d" stroke-linecap="round" stroke-linejoin="round" stroke-width="2">
        <rect width="22.55" height="3.86" stroke="none"/>
        <rect x="-1" y="-1" width="24.55" height="5.86" fill="none"/>
      </g>
      <g id="パス_2065" data-name="パス 2065" transform="translate(-872.91 -3053.644)" fill="none" stroke-linecap="round" stroke-linejoin="round">
        <path d="M886.063,3055.541v.079a1.872,1.872,0,1,1-3.743,0v-.079a1.872,1.872,0,0,1,1.84-1.9h.063A1.871,1.871,0,0,1,886.063,3055.541Z" stroke="none"/>
        <path d="M 884.1600952148438 3053.64404296875 C 883.1466674804688 3053.64404296875 882.320068359375 3054.49462890625 882.320068359375 3055.541259765625 L 882.320068359375 3055.619873046875 C 882.320068359375 3056.6650390625 883.1466674804688 3057.517333984375 884.1600952148438 3057.517333984375 C 885.2373657226562 3057.517333984375 886.062744140625 3056.66796875 886.062744140625 3055.619873046875 L 886.062744140625 3055.541259765625 C 886.062744140625 3054.49462890625 885.2373657226562 3053.64404296875 884.22265625 3053.64404296875 L 884.1600952148438 3053.64404296875 M 884.1600952148438 3051.64404296875 L 884.22265625 3051.64404296875 C 886.340087890625 3051.64404296875 888.062744140625 3053.392333984375 888.062744140625 3055.541259765625 L 888.062744140625 3055.619873046875 C 888.062744140625 3056.661376953125 887.6620483398438 3057.638427734375 886.9344482421875 3058.37109375 C 886.2002563476562 3059.110107421875 885.2149658203125 3059.517333984375 884.1600952148438 3059.517333984375 C 882.042724609375 3059.517333984375 880.320068359375 3057.76904296875 880.320068359375 3055.619873046875 L 880.320068359375 3055.541259765625 C 880.320068359375 3053.392333984375 882.042724609375 3051.64404296875 884.1600952148438 3051.64404296875 Z" stroke="none" fill="#00a99d"/>
      </g>
      <g id="パス_2066" data-name="パス 2066" transform="translate(-872.91 -3048.292)" fill="none" stroke-linecap="round" stroke-linejoin="round">
        <path d="M886.063,3071.6v.076a1.872,1.872,0,1,1-3.743,0v-.076a1.874,1.874,0,0,1,1.84-1.9h.063A1.873,1.873,0,0,1,886.063,3071.6Z" stroke="none"/>
        <path d="M 884.1600952148438 3069.701171875 C 883.1466674804688 3069.701171875 882.320068359375 3070.5537109375 882.320068359375 3071.60107421875 L 882.320068359375 3071.67724609375 C 882.320068359375 3072.72509765625 883.1466674804688 3073.5771484375 884.1600952148438 3073.5771484375 C 885.2373657226562 3073.5771484375 886.062744140625 3072.72509765625 886.062744140625 3071.67724609375 L 886.062744140625 3071.60107421875 C 886.062744140625 3070.5537109375 885.2373657226562 3069.701171875 884.22265625 3069.701171875 L 884.1600952148438 3069.701171875 M 884.1600952148438 3067.701171875 L 884.22265625 3067.701171875 C 886.340087890625 3067.701171875 888.062744140625 3069.45068359375 888.062744140625 3071.60107421875 L 888.062744140625 3071.67724609375 C 888.062744140625 3072.718017578125 887.6625366210938 3073.695068359375 886.935791015625 3074.42822265625 C 886.2012939453125 3075.169189453125 885.2155151367188 3075.5771484375 884.1600952148438 3075.5771484375 C 882.042724609375 3075.5771484375 880.320068359375 3073.82763671875 880.320068359375 3071.67724609375 L 880.320068359375 3071.60107421875 C 880.320068359375 3069.45068359375 882.042724609375 3067.701171875 884.1600952148438 3067.701171875 Z" stroke="none" fill="#00a99d"/>
      </g>
    </g>
    <g id="パス_2067" data-name="パス 2067" transform="translate(0.494 8.499)" fill="none" stroke-linecap="round" stroke-linejoin="round">
      <path d="M852.5,3072.012l5.407-5.573a1.326,1.326,0,0,0,0-1.831l-5.763-5.945,2.647-2.727,5.764,5.941a1.227,1.227,0,0,0,1.773,0l5.756-5.937,2.645,2.728-5.759,5.94a1.322,1.322,0,0,0,0,1.828l5.763,5.944-2.173,2.243a.694.694,0,0,1-.944,0l-5.291-5.454a1.26,1.26,0,0,0-1.773,0l-5.293,5.46a.7.7,0,0,1-.835.112l-1.812-1.871A.75.75,0,0,1,852.5,3072.012Z" stroke="none"/>
      <path d="M 854.78515625 3074.8271484375 C 854.9638061523438 3074.8271484375 855.1263427734375 3074.759521484375 855.2546997070312 3074.628173828125 L 860.5479736328125 3069.168212890625 C 861.018798828125 3068.681396484375 861.8507690429688 3068.681640625 862.3213500976562 3069.168212890625 L 867.612060546875 3074.62255859375 C 867.8507080078125 3074.8681640625 868.3173828125 3074.87109375 868.5560302734375 3074.62255859375 L 870.7293701171875 3072.3798828125 L 864.9666137695312 3066.43603515625 C 864.4773559570312 3065.9306640625 864.4773559570312 3065.112060546875 864.9666137695312 3064.60791015625 L 870.7252807617188 3058.668212890625 L 868.0800170898438 3055.93994140625 L 862.3240356445312 3061.87744140625 C 861.8346557617188 3062.3828125 861.0387573242188 3062.3828125 860.5505981445312 3061.87744140625 L 854.78662109375 3055.93603515625 L 852.1400756835938 3058.662841796875 L 857.9026489257812 3064.60791015625 C 858.1373291015625 3064.849365234375 858.2693481445312 3065.179931640625 858.2693481445312 3065.522705078125 C 858.2693481445312 3065.865234375 858.1373291015625 3066.196044921875 857.9026489257812 3066.438720703125 L 852.4959716796875 3072.01220703125 C 852.3546752929688 3072.33349609375 852.3947143554688 3072.649169921875 852.6080322265625 3072.869140625 L 854.4199829101562 3074.739990234375 C 854.5452880859375 3074.79833984375 854.6686401367188 3074.8271484375 854.78515625 3074.8271484375 M 854.78515625 3076.8271484375 C 854.3727416992188 3076.8271484375 853.9656372070312 3076.73486328125 853.5750732421875 3076.552734375 C 853.353759765625 3076.44970703125 853.1531982421875 3076.306884765625 852.9833374023438 3076.13134765625 L 851.17138671875 3074.260498046875 C 850.3870239257812 3073.45166015625 850.1927490234375 3072.28125 850.6652221679688 3071.20703125 C 850.760986328125 3070.9892578125 850.8948364257812 3070.790283203125 851.0604248046875 3070.61962890625 L 856.00439453125 3065.523193359375 L 850.7039794921875 3060.054931640625 C 849.9517822265625 3059.27880859375 849.9521484375 3058.04541015625 850.7048950195312 3057.27001953125 L 853.3514404296875 3054.543212890625 C 853.7280883789062 3054.155029296875 854.245849609375 3053.93603515625 854.78662109375 3053.93603515625 C 854.7867431640625 3053.93603515625 854.7867431640625 3053.93603515625 854.786865234375 3053.93603515625 C 855.3276977539062 3053.93603515625 855.8455200195312 3054.1552734375 856.2221069335938 3054.54345703125 L 861.4371337890625 3059.9189453125 L 866.64404296875 3054.5478515625 C 867.0206909179688 3054.1591796875 867.5387573242188 3053.93994140625 868.0799560546875 3053.93994140625 C 868.62109375 3053.93994140625 869.1392211914062 3054.1591796875 869.5159301757812 3054.5478515625 L 872.1611938476562 3057.276123046875 C 872.913330078125 3058.0517578125 872.913330078125 3059.28466796875 872.1611938476562 3060.060302734375 L 866.8660888671875 3065.52197265625 L 872.165283203125 3070.98779296875 C 872.9172973632812 3071.763427734375 872.9174194335938 3072.995849609375 872.1655883789062 3073.771728515625 L 869.9933471679688 3076.013427734375 C 869.50537109375 3076.518310546875 868.8104248046875 3076.8076171875 868.0855712890625 3076.807861328125 C 867.3617553710938 3076.807861328125 866.666259765625 3076.519287109375 866.1774291992188 3076.01611328125 L 861.434814453125 3071.126708984375 L 856.690673828125 3076.020263671875 C 856.6889038085938 3076.022216796875 856.6870727539062 3076.02392578125 856.685302734375 3076.02587890625 C 856.1805419921875 3076.54248046875 855.5056762695312 3076.8271484375 854.78515625 3076.8271484375 Z" stroke="none" fill="#00a99d"/>
    </g>
  </g>
</svg>
