<svg xmlns="http://www.w3.org/2000/svg" width="44" height="50" viewBox="0 0 44 50">
  <g id="illust" transform="translate(-551.29 -9963.673)">
    <g id="グループ_13945" data-name="グループ 13945" transform="translate(551.29 9963.673)">
      <path id="パス_2243" data-name="パス 2243" d="M593.718,9998.048a1.567,1.567,0,0,0,1.572-1.563v-28.125a1.567,1.567,0,0,0-1.572-1.562H574.861v-1.562a1.571,1.571,0,0,0-3.142,0v1.563H552.862a1.567,1.567,0,0,0-1.572,1.563v28.125a1.567,1.567,0,0,0,1.572,1.563h18.857v7.945l-5.04,5.012a1.555,1.555,0,0,0,0,2.209,1.577,1.577,0,0,0,2.222,0l2.818-2.8v1.7a1.571,1.571,0,0,0,3.142,0v-1.7l2.818,2.8a1.574,1.574,0,0,0,2.222,0,1.555,1.555,0,0,0,0-2.209l-5.04-5.012v-7.945Zm-40.135-28.688H593v26.126H553.583Z" transform="translate(-551.29 -9963.673)" fill="#198269"/>
      <path id="パス_2244" data-name="パス 2244" d="M585.732,9981.582a1.587,1.587,0,0,1,3.173,0v7.932a1.633,1.633,0,0,1-.031.312c-.01.047-.028.091-.041.137a1.471,1.471,0,0,1-.049.159c-.023.054-.054.1-.082.155s-.039.08-.063.117a1.613,1.613,0,0,1-.441.44c-.037.025-.078.042-.118.064s-.1.059-.155.082-.1.032-.159.049-.089.03-.137.041a1.652,1.652,0,0,1-.31.03h-7.932a1.586,1.586,0,1,1,0-3.173h4.1l-10.448-10.447-3.638,3.638a1.587,1.587,0,0,1-2.243,0l-6.346-6.346a1.586,1.586,0,0,1,2.244-2.243l5.224,5.224,3.637-3.638a1.586,1.586,0,0,1,2.244,0l11.569,11.569Z" transform="translate(-551.53 -9963.875)" fill="#198269"/>
    </g>
    <g id="グループ_13946" data-name="グループ 13946" transform="translate(557.738 9983.936)">
      <path id="パス_2245" data-name="パス 2245" d="M561.009,9991.327a3.326,3.326,0,0,1-1.746-.441,2.948,2.948,0,0,1-1.129-1.231,4.486,4.486,0,0,1,0-3.686,2.948,2.948,0,0,1,1.129-1.231,3.326,3.326,0,0,1,1.746-.44,3.224,3.224,0,0,1,1.952.576,3.065,3.065,0,0,1,1.114,1.561l-1.285.356a1.714,1.714,0,0,0-1.781-1.294,1.892,1.892,0,0,0-1.071.286,1.738,1.738,0,0,0-.644.806,3.574,3.574,0,0,0,0,2.447,1.73,1.73,0,0,0,.644.8,1.884,1.884,0,0,0,1.071.286,1.72,1.72,0,0,0,1.781-1.293l1.285.356a3.061,3.061,0,0,1-1.114,1.561A3.224,3.224,0,0,1,561.009,9991.327Z" transform="translate(-557.738 -9984.297)" fill="#198269"/>
      <path id="パス_2246" data-name="パス 2246" d="M568.377,9991.327a3.324,3.324,0,0,1-1.746-.441,2.942,2.942,0,0,1-1.129-1.231,4.486,4.486,0,0,1,0-3.686,2.942,2.942,0,0,1,1.129-1.231,3.681,3.681,0,0,1,3.492,0,2.942,2.942,0,0,1,1.129,1.231,4.486,4.486,0,0,1,0,3.686,2.942,2.942,0,0,1-1.129,1.231A3.328,3.328,0,0,1,568.377,9991.327Zm0-1.2a1.828,1.828,0,0,0,1.069-.275,1.744,1.744,0,0,0,.639-.812,3.249,3.249,0,0,0,.213-1.228,3.174,3.174,0,0,0-.213-1.219,1.749,1.749,0,0,0-.639-.8,1.932,1.932,0,0,0-1.069-.3,1.834,1.834,0,0,0-1.069.277,1.722,1.722,0,0,0-.639.811,3.225,3.225,0,0,0-.214,1.228,3.164,3.164,0,0,0,.214,1.219,1.73,1.73,0,0,0,.639.8A1.914,1.914,0,0,0,568.377,9990.126Z" transform="translate(-557.738 -9984.297)" fill="#198269"/>
      <path id="パス_2247" data-name="パス 2247" d="M572.772,9991.177v-.589l1.507-1.338a1.038,1.038,0,0,0,.24-.282.535.535,0,0,0,.069-.247.622.622,0,0,0-.067-.293.51.51,0,0,0-.189-.2.551.551,0,0,0-.287-.073.565.565,0,0,0-.3.079.544.544,0,0,0-.2.207.525.525,0,0,0-.068.277h-.7a1.21,1.21,0,0,1,.162-.638,1.088,1.088,0,0,1,.451-.417,1.453,1.453,0,0,1,.674-.147,1.288,1.288,0,0,1,.63.153,1.119,1.119,0,0,1,.438.428,1.24,1.24,0,0,1,.16.637,1.132,1.132,0,0,1-.075.442,1.008,1.008,0,0,1-.222.324c-.1.1-.219.211-.362.336l-.973.854-.055-.15h1.687v.639Z" transform="translate(-557.738 -9984.297)" fill="#198269"/>
    </g>
  </g>
</svg>
